
<svg xmlns="http://www.w3.org/2000/svg" style="display:none">
  
  <symbol id="me-logo" viewBox="0 0 32 32">
    <path d="M16 2 L20 12 L30 12 L22 18 L25 28 L16 22 L7 28 L10 18 L2 12 L12 12 Z" fill="currentColor"></path>
  </symbol>

  
  <symbol id="me-layer-streets" viewBox="0 0 24 24">
    <path d="M3 3h7v7H3V3zm11 0h7v7h-7V3zM3 14h7v7H3v-7zm11 0h7v7h-7v-7z" fill="currentColor"></path>
  </symbol>
  <symbol id="me-layer-topo" viewBox="0 0 24 24">
    <path d="M14 6l-3.75 5 2.85 3.8-1.6 1.2C9.81 13.75 7 10 7 10l-6 8h22L14 6z" fill="currentColor"></path>
  </symbol>
  <symbol id="me-layer-satellite" viewBox="0 0 24 24">
    <circle cx="12" cy="12" r="8" fill="none" stroke="currentColor" stroke-width="2"></circle>
    <circle cx="12" cy="12" r="3" fill="currentColor"></circle>
  </symbol>

  
  <symbol id="me-reset" viewBox="0 0 24 24">
    <path d="M12 5V1L7 6l5 5V7c3.31 0 6 2.69 6 6 0 1.01-.25 1.97-.7 2.8l1.46 1.46A7.93 7.93 0 0 0 20 13c0-4.42-3.58-8-8-8zm-7 8c0 1.01.25 1.97.7 2.8l-1.46 1.46A7.93 7.93 0 0 1 4 13c0-4.42 3.58-8 8-8v3l5-5-5-5v3c-3.31 0-6 2.69-6 6z" fill="currentColor"></path>
  </symbol>
  <symbol id="me-import" viewBox="0 0 24 24">
    <path d="M9 16h6v-6h4l-7-7-7 7h4v6zm-4 2h14v2H5v-2z" fill="currentColor"></path>
  </symbol>
  <symbol id="me-export" viewBox="0 0 24 24">
    <path d="M19 9h-4V3H9v6H5l7 7 7-7zM5 18v2h14v-2H5z" fill="currentColor"></path>
  </symbol>

  <symbol id="me-copy" viewBox="0 0 24 24">
    <path d="M16 1H4a2 2 0 0 0-2 2v14h2V3h12V1zm3 4H8a2 2 0 0 0-2 2v14a2 2 0 0 0 2 2h11a2 2 0 0 0 2-2V7a2 2 0 0 0-2-2zm0 16H8V7h11v14z" fill="currentColor"></path>
  </symbol>
  <symbol id="me-menu" viewBox="0 0 24 24">
    <path d="M3 18h18v-2H3v2zm0-5h18v-2H3v2zm0-7v2h18V6H3z" fill="currentColor"></path>
  </symbol>

  
  <symbol id="me-route" viewBox="0 0 24 24">
    <path d="M21 3L3 10.53v.98l6.84 2.65L12.48 21h.98L21 3z" fill="currentColor"></path>
  </symbol>
  <symbol id="me-waypoint" viewBox="0 0 24 24">
    <path d="M12 2C8.13 2 5 5.13 5 9c0 5.25 7 13 7 13s7-7.75 7-13c0-3.87-3.13-7-7-7zm0 9.5a2.5 2.5 0 0 1 0-5 2.5 2.5 0 0 1 0 5z" fill="currentColor"></path>
  </symbol>
  <symbol id="me-stats" viewBox="0 0 24 24">
    <path d="M19 3H5c-1.1 0-2 .9-2 2v14c0 1.1.9 2 2 2h14c1.1 0 2-.9 2-2V5c0-1.1-.9-2-2-2zM9 17H7v-7h2v7zm4 0h-2V7h2v10zm4 0h-2v-4h2v4z" fill="currentColor"></path>
  </symbol>
  <symbol id="me-settings" viewBox="0 0 24 24">
    <path d="M19.14 12.94c.04-.3.06-.61.06-.94s-.02-.64-.07-.94l2.03-1.58a.49.49 0 0 0 .12-.61l-1.92-3.32a.488.488 0 0 0-.59-.22l-2.39.96c-.5-.38-1.03-.7-1.62-.94l-.36-2.54a.484.484 0 0 0-.48-.41h-3.84c-.24 0-.43.17-.47.41l-.36 2.54c-.59.24-1.13.57-1.62.94l-2.39-.96c-.22-.08-.47 0-.59.22L2.74 8.87c-.12.21-.08.47.12.61l2.03 1.58c-.05.3-.09.63-.09.94s.02.64.07.94l-2.03 1.58a.49.49 0 0 0-.12.61l1.92 3.32c.12.22.37.29.59.22l2.39-.96c.5.38 1.03.7 1.62.94l.36 2.54c.05.24.24.41.48.41h3.84c.24 0 .44-.17.47-.41l.36-2.54c.59-.24 1.13-.57 1.62-.94l2.39.96c.22.08.47 0 .59-.22l1.92-3.32c.12-.22.07-.47-.12-.61l-2.01-1.58zM12 15.6c-1.98 0-3.6-1.62-3.6-3.6s1.62-3.6 3.6-3.6 3.6 1.62 3.6 3.6-1.62 3.6-3.6 3.6z" fill="currentColor"></path>
  </symbol>
  <symbol id="me-offline" viewBox="0 0 24 24">
    <path d="M19.35 10.04C18.67 6.59 15.64 4 12 4 9.11 4 6.6 5.64 5.35 8.04 2.34 8.36 0 10.91 0 14c0 3.31 2.69 6 6 6h13c2.76 0 5-2.24 5-5 0-2.64-2.05-4.78-4.65-4.96z" fill="currentColor"></path>
  </symbol>
  <symbol id="me-alternatives" viewBox="0 0 24 24">
    <path d="M13 7.5h5v2h-5v-2zm0 7h5v2h-5v-2zM19 3H5c-1.1 0-2 .9-2 2v14c0 1.1.9 2 2 2h14c1.1 0 2-.9 2-2V5c0-1.1-.9-2-2-2zm0 16H5V5h14v14zM11 6H6v5h5V6zm-1 4H7V7h3v3zm1 3H6v5h5v-5zm-1 4H7v-3h3v3z" fill="currentColor"></path>
  </symbol>

  
  <symbol id="me-walk" viewBox="0 0 24 24">
    <path d="M13.5 5.5c1.1 0 2-.9 2-2s-.9-2-2-2-2 .9-2 2 .9 2 2 2zM9.8 8.9L7 23h2.1l1.8-8 2.1 2v6h2v-7.5l-2.1-2 .6-3C14.8 12 16.8 13 19 13v-2c-1.9 0-3.5-1-4.3-2.4l-1-1.6c-.4-.6-1-1-1.7-1-.3 0-.5.1-.8.1L6 8.3V13h2V9.6l1.8-.7z" fill="currentColor"></path>
  </symbol>
  <symbol id="me-hike" viewBox="0 0 24 24">
    <path d="M14 6l-3.75 5 2.85 3.8-1.6 1.2C9.81 13.75 7 10 7 10l-6 8h22L14 6z" fill="currentColor"></path>
  </symbol>
  <symbol id="me-bike" viewBox="0 0 24 24">
    <path d="M15.5 5.5c1.1 0 2-.9 2-2s-.9-2-2-2-2 .9-2 2 .9 2 2 2zM5 12c-2.8 0-5 2.2-5 5s2.2 5 5 5 5-2.2 5-5-2.2-5-5-5zm0 8.5c-1.93 0-3.5-1.57-3.5-3.5s1.57-3.5 3.5-3.5 3.5 1.57 3.5 3.5-1.57 3.5-3.5 3.5zm5.8-10l2.4-2.4.8.8c1.3 1.3 3 2.1 5 2.1V9c-1.5 0-2.7-.6-3.6-1.5l-1.9-1.9c-.5-.4-1-.6-1.6-.6s-1.1.2-1.4.6L7.8 8.4c-.4.4-.6.9-.6 1.4 0 .6.2 1.1.6 1.4L11 14v5h2v-6.2l-2.2-2.3zM19 12c-2.8 0-5 2.2-5 5s2.2 5 5 5 5-2.2 5-5-2.2-5-5-5zm0 8.5c-1.93 0-3.5-1.57-3.5-3.5s1.57-3.5 3.5-3.5 3.5 1.57 3.5 3.5-1.57 3.5-3.5 3.5z" fill="currentColor"></path>
  </symbol>
  <symbol id="me-car" viewBox="0 0 24 24">
    <path d="M18.92 6.01C18.72 5.42 18.16 5 17.5 5h-11c-.66 0-1.21.42-1.42 1.01L3 12v8c0 .55.45 1 1 1h1c.55 0 1-.45 1-1v-1h12v1c0 .55.45 1 1 1h1c.55 0 1-.45 1-1v-8l-2.08-5.99zM6.5 16c-.83 0-1.5-.67-1.5-1.5S5.67 13 6.5 13s1.5.67 1.5 1.5S7.33 16 6.5 16zm11 0c-.83 0-1.5-.67-1.5-1.5s.67-1.5 1.5-1.5 1.5.67 1.5 1.5-.67 1.5-1.5 1.5zM5 11l1.5-4.5h11L19 11H5z" fill="currentColor"></path>
  </symbol>

  
  <symbol id="me-distance" viewBox="0 0 24 24">
    <path d="M1 21h22L12 2 1 21zm12-3h-2v-2h2v2zm0-4h-2v-4h2v4z" fill="currentColor"></path>
  </symbol>
  <symbol id="me-ascent" viewBox="0 0 24 24">
    <path d="M16 6l2.29 2.29-4.88 4.88-4-4L2 16.59 3.41 18l6-6 4 4 6.3-6.29L22 12V6h-6z" fill="currentColor"></path>
  </symbol>
  <symbol id="me-descent" viewBox="0 0 24 24">
    <path d="M16 18l2.29-2.29-4.88-4.88-4 4L2 7.41 3.41 6l6 6 4-4 6.3 6.29L22 12v6h-6z" fill="currentColor"></path>
  </symbol>
  <symbol id="me-clock" viewBox="0 0 24 24">
    <path d="M11.99 2C6.47 2 2 6.48 2 12s4.47 10 9.99 10C17.52 22 22 17.52 22 12S17.52 2 11.99 2zM12 20c-4.42 0-8-3.58-8-8s3.58-8 8-8 8 3.58 8 8-3.58 8-8 8zm.5-13H11v6l5.25 3.15.75-1.23-4.5-2.67V7z" fill="currentColor"></path>
  </symbol>
  <symbol id="me-flame" viewBox="0 0 24 24">
    <path d="M13.5 .67s.74 2.65.74 4.8c0 2.06-1.35 3.73-3.41 3.73-2.07 0-3.63-1.67-3.63-3.73l.03-.36C5.21 7.51 4 10.62 4 14c0 4.42 3.58 8 8 8s8-3.58 8-8C20 8.61 17.41 3.8 13.5.67zM11.71 19c-1.78 0-3.22-1.4-3.22-3.14 0-1.62 1.05-2.76 2.81-3.12 1.77-.36 3.6-1.21 4.62-2.58.39 1.29.59 2.65.59 4.04 0 2.65-2.15 4.8-4.8 4.8z" fill="currentColor"></path>
  </symbol>
  <symbol id="me-intake" viewBox="0 0 24 24">
    <path d="M18.06 22.99h1.66c.84 0 1.53-.64 1.63-1.46L23 5.05h-5V1h-1.97v4.05h-4.97l.3 2.34c1.71.47 3.31 1.32 4.27 2.26 1.44 1.42 2.43 2.89 2.43 5.29v8.05zM1 21.99V21h15.03v.99c0 .55-.45 1-1.01 1H2.01c-.56 0-1.01-.45-1.01-1zm15.03-7c0-2.21-2.85-4-6.39-4C6.1 10.99 2.97 12.78 2.97 15c0 2.21 3.13 4 6.67 4 3.54 0 6.39-1.79 6.39-4zm-3.01-5.07c-.29-.06-.6-.06-.89-.06-2.98 0-5.61.94-7.12 2.33-.31.28-.56.58-.8.88v-3.6h8.81v.45z" fill="currentColor"></path>
  </symbol>

  
  <symbol id="me-undo" viewBox="0 0 24 24">
    <path d="M12.5 8c-2.65 0-5.05 1.04-6.83 2.73L2 7v9h9l-3.62-3.62c1.39-1.16 3.16-1.88 5.12-1.88 3.54 0 6.55 2.31 7.6 5.5l2.37-.78C21.08 11.04 17.15 8 12.5 8z" fill="currentColor"></path>
  </symbol>
  <symbol id="me-replan" viewBox="0 0 24 24">
    <path d="M12 4V1L8 5l4 4V6c3.31 0 6 2.69 6 6 0 1.01-.25 1.97-.7 2.8l1.46 1.46A7.93 7.93 0 0 0 20 12c0-4.42-3.58-8-8-8zm0 14c-3.31 0-6-2.69-6-6 0-1.01.25-1.97.7-2.8L5.24 7.74A7.93 7.93 0 0 0 4 12c0 4.42 3.58 8 8 8v3l4-4-4-4v3z" fill="currentColor"></path>
  </symbol>
  <symbol id="me-close" viewBox="0 0 24 24">
    <path d="M19 6.41L17.59 5 12 10.59 6.41 5 5 6.41 10.59 12 5 17.59 6.41 19 12 13.41 17.59 19 19 17.59 13.41 12 19 6.41z" fill="currentColor"></path>
  </symbol>
  <symbol id="me-info" viewBox="0 0 24 24">
    <path d="M12 2C6.48 2 2 6.48 2 12s4.48 10 10 10 10-4.48 10-10S17.52 2 12 2zm1 17h-2v-2h2v2zm0-4h-2V7h2v8z" fill="currentColor"></path>
  </symbol>
  <symbol id="me-fit" viewBox="0 0 24 24">
    <path d="M15 3l2.3 2.3-2.89 2.87 1.42 1.42L18.7 6.7 21 9V3zM3 9l2.3-2.3 2.87 2.89 1.42-1.42L6.7 5.3 9 3H3zm6 12l-2.3-2.3 2.89-2.87-1.42-1.42L5.3 17.3 3 15v6zm12-6l-2.3 2.3-2.87-2.89-1.42 1.42 2.89 2.87L15 21h6z" fill="currentColor"></path>
  </symbol>
  <symbol id="me-locate" viewBox="0 0 24 24">
    <path d="M12 8c-2.21 0-4 1.79-4 4s1.79 4 4 4 4-1.79 4-4-1.79-4-4-4zm8.94 3c-.46-4.17-3.77-7.48-7.94-7.94V1h-2v2.06C6.83 3.52 3.52 6.83 3.06 11H1v2h2.06c.46 4.17 3.77 7.48 7.94 7.94V23h2v-2.06c4.17-.46 7.48-3.77 7.94-7.94H23v-2h-2.06zM12 19c-3.87 0-7-3.13-7-7s3.13-7 7-7 7 3.13 7 7-3.13 7-7 7z" fill="currentColor"></path>
  </symbol>
  <symbol id="me-chevron-down" viewBox="0 0 24 24">
    <path d="M7.41 15.41L12 10.83l4.59 4.58L18 14l-6-6-6 6z" fill="currentColor"></path>
  </symbol>
  <symbol id="me-chevron-up" viewBox="0 0 24 24">
    <path d="M12 8l-6 6 1.41 1.41L12 10.83l4.59 4.58L18 14z" fill="currentColor"></path>
  </symbol>
</svg>