<svg xmlns="http://www.w3.org/2000/svg" viewBox="0 0 64 64" fill="none" role="img" aria-label="Railway Elf logo">
  <style>
    .mark { fill: #6ee7b7; }
    .detail { fill: #0f1117; }
    .detail-stroke { stroke: #0f1117; }
  </style>
  <path class="mark" fill-rule="evenodd" d="M32 3.5c-13.1 0-23 9.5-23 22.2 0 13.1 14.6 25.8 23 34.9 8.4-9.1 23-21.8 23-34.9C55 13 45.1 3.5 32 3.5Zm0 6.6c9.5 0 16.6 6.6 16.6 15.8 0 8.4-7.7 17.2-16.6 26.8-8.9-9.6-16.6-18.4-16.6-26.8 0-9.2 7.1-15.8 16.6-15.8Z"/>
  <rect class="mark" x="27.8" y="8.2" width="8.4" height="5.8" rx="1.5"/>
  <path class="mark" d="M20.4 30.8c0-9 4.4-14.3 11.6-14.3s11.6 5.3 11.6 14.3v6.7c0 2.5-2 4.4-4.4 4.4H24.8c-2.4 0-4.4-1.9-4.4-4.4v-6.7Z"/>
  <circle cx="32" cy="27.6" r="6.2" class="detail-stroke" stroke-width="4.2"/>
  <circle class="detail" cx="23.5" cy="38.2" r="3.7"/>
  <circle class="detail" cx="40.5" cy="38.2" r="3.7"/>
  <path class="mark" d="M19.7 44.1h24.6L32 58.1 19.7 44.1Z"/>
  <path class="detail-stroke" d="M24.2 46.3 20.5 55M29.4 46.3 28 57M34.6 46.3 36 57M39.8 46.3 43.5 55" stroke-width="3" stroke-linecap="round"/>
</svg>
